<svg width="140" height="32" viewBox="0 0 140 32" fill="none" xmlns="http://www.w3.org/2000/svg">
<g clip-path="url(#clip0_2218_4114)">
<path d="M20.5937 22.3831C21.6989 24.3011 22.7918 26.1972 23.8839 28.0913C19.048 31.7937 11.5241 32.2411 5.95438 27.9775C-0.455181 23.0672 -1.50865 14.6888 1.92293 8.65763C5.86974 1.72051 13.2555 0.186325 18.0109 1.31128C17.8823 1.59068 15.0342 7.49939 15.0342 7.49939C15.0342 7.49939 14.809 7.51418 14.6817 7.51664C13.2761 7.57622 12.2292 7.90327 11.1071 8.48342C9.87601 9.12581 8.82101 10.06 8.0343 11.2042C7.24758 12.3485 6.75311 13.668 6.5941 15.0475C6.42819 16.4464 6.62164 17.8646 7.15617 19.1681C7.60813 20.27 8.24744 21.2487 9.10451 22.075C10.4193 23.3437 11.9839 24.1293 13.7975 24.3894C15.5149 24.6359 17.1666 24.3919 18.7143 23.6141C19.2949 23.3228 19.7888 23.0011 20.366 22.5598C20.4396 22.5121 20.5049 22.4517 20.5937 22.3831Z" fill="white"/>
<path d="M20.603 5.56158C20.3223 5.28548 20.0623 5.03074 19.8034 4.77436C19.6489 4.62151 19.5002 4.46251 19.342 4.31336C19.2853 4.25954 19.2188 4.18599 19.2188 4.18599C19.2188 4.18599 19.2726 4.07177 19.2956 4.02493C19.5984 3.41726 20.0729 2.97311 20.6358 2.61976C21.2583 2.22606 21.9835 2.02574 22.7198 2.04413C23.6619 2.06262 24.5379 2.29723 25.277 2.92914C25.8227 3.39548 26.1025 3.98713 26.1518 4.69342C26.2339 5.88494 25.7409 6.79748 24.7618 7.43432C24.1866 7.80904 23.5662 8.0987 22.9441 8.44178C22.601 8.63119 22.3077 8.79759 21.9724 9.14025C21.6774 9.48415 21.663 9.80833 21.663 9.80833L26.1197 9.80258V11.7875H19.2405C19.2405 11.7875 19.2405 11.6519 19.2405 11.5956C19.2142 10.6202 19.328 9.70232 19.7747 8.81649C20.1855 8.00379 20.824 7.40885 21.5911 6.95073C22.1819 6.59779 22.804 6.29745 23.3961 5.94616C23.7613 5.72963 24.0193 5.41203 24.0173 4.95144C24.0173 4.55619 23.7297 4.20489 23.3188 4.09519C22.35 3.83388 21.3639 4.25091 20.8511 5.13757C20.7764 5.26699 20.6999 5.39559 20.603 5.56158Z" fill="white"/>
<path d="M29.2221 20.2742L25.4663 13.7882H18.0341L14.2541 20.3412H21.741L25.4355 26.7963L29.2221 20.2742Z" fill="white"/>
<path d="M72.7923 3.68352H70.038L66.3189 9.23415V11.2335H70.8489V13.1909H72.7923V11.2335H73.785V9.45785H72.7923V3.68352ZM68.2064 9.45785L70.8489 5.50111V9.45785H68.2064Z" fill="white"/>
<path d="M77.2889 13.1909H79.442V10.8979H77.2889V13.1909Z" fill="white"/>
<path d="M92.3918 15.9033H93.4824L97.3133 3.12427H96.2088L92.3918 15.9033Z" fill="white"/>
<path d="M100.44 3.68352L99.9224 8.70286L101.782 9.24813C102.062 8.94054 102.649 8.64693 103.292 8.64693C104.173 8.64693 104.704 9.19221 104.704 10.073C104.704 10.9539 104.131 11.5131 103.25 11.5131C102.383 11.5131 101.838 11.0517 101.628 10.3107L99.5589 10.7441C99.9224 12.4079 101.181 13.3307 103.25 13.3307C105.431 13.3307 106.815 12.0584 106.815 10.0451C106.815 8.04573 105.613 6.99712 103.823 6.99712C102.984 6.99712 102.257 7.22083 101.824 7.57036L102.02 5.57102H106.27V3.68352H100.44Z" fill="white"/>
<path d="M42.1055 26.2208C42.427 28.0524 43.5875 28.8773 45.475 28.8773C47.2926 28.8773 48.6767 27.9825 48.6767 26.2208C48.6767 24.7947 48.0336 23.9838 46.5376 23.6343L45.0416 23.2848C43.993 23.0471 43.6294 22.5717 43.6294 21.7608C43.6294 20.838 44.2446 20.1249 45.4191 20.1249C46.6914 20.1249 47.2786 20.8799 47.4743 21.8447L48.6068 21.6629C48.3412 20.083 47.3066 19.0903 45.447 19.0903C43.6994 19.0903 42.455 20.1669 42.455 21.8167C42.455 23.3826 43.3219 24.0677 44.706 24.3893L46.23 24.7388C47.1807 24.9625 47.5023 25.4099 47.5023 26.2628C47.5023 27.2695 46.7054 27.8427 45.503 27.8427C44.1607 27.8427 43.5316 27.1996 43.2659 26.0251L42.1055 26.2208Z" fill="white"/>
<path d="M50.2092 20.3487H53.0335V28.7375H54.2359V20.3487H57.0601V19.2301H50.2092V20.3487Z" fill="white"/>
<path d="M62.6333 19.2301H61.0953L58.1732 28.7375H59.3896L60.1446 26.137H63.584L64.339 28.7375H65.5833L62.6333 19.2301ZM60.4382 25.0744L61.8503 20.2088L63.2624 25.0744H60.4382Z" fill="white"/>
<path d="M67.1857 28.7375H68.3881V25.1163H70.4015L72.3589 28.7375H73.6871L71.6458 24.9485C72.7783 24.5571 73.3655 23.5784 73.3655 22.1523C73.3655 20.1669 72.3589 19.2301 70.5413 19.2301H67.1857V28.7375ZM68.3881 24.0118V20.3347H70.4434C71.5479 20.3347 72.1771 20.7541 72.1771 22.1662C72.1771 23.3407 71.6598 24.0118 70.4434 24.0118H68.3881Z" fill="white"/>
<path d="M75.0798 26.2208C75.4014 28.0524 76.5618 28.8773 78.4493 28.8773C80.2669 28.8773 81.6511 27.9825 81.6511 26.2208C81.6511 24.7947 81.0079 23.9838 79.5119 23.6343L78.0159 23.2848C76.9673 23.0471 76.6038 22.5717 76.6038 21.7608C76.6038 20.838 77.2189 20.1249 78.3934 20.1249C79.6657 20.1249 80.2529 20.8799 80.4487 21.8447L81.5811 21.6629C81.3155 20.083 80.2809 19.0903 78.4213 19.0903C76.6737 19.0903 75.4293 20.1669 75.4293 21.8167C75.4293 23.3826 76.2962 24.0677 77.6803 24.3893L79.2043 24.7388C80.155 24.9625 80.4766 25.4099 80.4766 26.2628C80.4766 27.2695 79.6797 27.8427 78.4773 27.8427C77.1351 27.8427 76.5059 27.1996 76.2402 26.0251L75.0798 26.2208Z" fill="white"/>
<path d="M91.9165 28.7375H93.1189V25.1163H95.1322L97.0896 28.7375H98.4178L96.3766 24.9485C97.5091 24.5571 98.0963 23.5784 98.0963 22.1523C98.0963 20.1669 97.0896 19.2301 95.272 19.2301H91.9165V28.7375ZM93.1189 24.0118V20.3347H95.1742C96.2787 20.3347 96.9078 20.7541 96.9078 22.1662C96.9078 23.3407 96.3905 24.0118 95.1742 24.0118H93.1189Z" fill="white"/>
<path d="M103.851 19.2301H102.313L99.3911 28.7375H100.607L101.362 26.137H104.802L105.557 28.7375H106.801L103.851 19.2301ZM101.656 25.0744L103.068 20.2088L104.48 25.0744H101.656Z" fill="white"/>
<path d="M107.914 20.3487H110.739V28.7375H111.941V20.3487H114.765V19.2301H107.914V20.3487Z" fill="white"/>
<path d="M116.787 28.7375H122.38V27.647H120.171V20.3207H122.38V19.2301H116.787V20.3207H118.996V27.647H116.787V28.7375Z" fill="white"/>
<path d="M130.763 28.7375V19.2301H129.658V27.0458L126.345 19.2301H124.891V28.7375H126.009V20.9359L129.309 28.7375H130.763Z" fill="white"/>
<path d="M139.272 24.2495H136.28V25.2841H138.21V25.6616C138.21 26.864 137.552 27.8287 136.182 27.8287C134.686 27.8287 133.819 26.2768 133.819 23.9838C133.819 21.6909 134.728 20.1389 136.126 20.1389C137.343 20.1389 137.888 21.0897 138.154 22.3061L139.286 22.1243C138.979 20.1669 137.832 19.0903 136.126 19.0903C134.085 19.0903 132.645 20.8939 132.645 23.9838C132.645 27.0737 134.043 28.8773 136.084 28.8773C137.049 28.8773 137.804 28.4579 138.21 27.7308V28.7375H139.272V24.2495Z" fill="white"/>
<path d="M86.3733 13.3999C85.893 13.3968 85.4294 13.3154 84.9825 13.1556C84.5386 12.9957 84.1403 12.736 83.7877 12.3764C83.435 12.0168 83.1553 11.5404 82.9486 10.9473C82.7449 10.3541 82.6431 9.62565 82.6431 8.762C82.6461 7.96904 82.7358 7.2606 82.9121 6.63668C83.0915 6.00968 83.3469 5.47797 83.6782 5.04153C84.0127 4.6051 84.4124 4.27316 84.8776 4.04572C85.3427 3.81521 85.8641 3.69995 86.4417 3.69995C87.065 3.69995 87.6152 3.82289 88.0925 4.06877C88.5698 4.31158 88.9529 4.64198 89.2417 5.05997C89.5336 5.47797 89.7099 5.94668 89.7707 6.4661H87.8235C87.7475 6.13723 87.5879 5.87906 87.3447 5.69158C87.1015 5.50409 86.8005 5.41035 86.4417 5.41035C85.8337 5.41035 85.3716 5.67775 85.0554 6.21253C84.7423 6.74732 84.5827 7.4742 84.5766 8.39318H84.6404C84.7803 8.11349 84.9688 7.87529 85.2059 7.67859C85.4461 7.47881 85.7182 7.32668 86.0222 7.22218C86.3293 7.1146 86.653 7.06082 86.9935 7.06082C87.5468 7.06082 88.0393 7.19298 88.471 7.4573C88.9027 7.71855 89.2432 8.07814 89.4925 8.5361C89.7418 8.99405 89.8665 9.51808 89.8665 10.1082C89.8665 10.7475 89.719 11.3161 89.4241 11.814C89.1323 12.3119 88.7234 12.7022 88.1974 12.985C87.6745 13.2647 87.0665 13.403 86.3733 13.3999ZM86.3642 11.8324C86.6682 11.8324 86.9403 11.7587 87.1805 11.6111C87.4207 11.4636 87.6092 11.2638 87.746 11.0118C87.8828 10.7598 87.9512 10.477 87.9512 10.1635C87.9512 9.85001 87.8828 9.56879 87.746 9.31984C87.6122 9.07088 87.4267 8.87264 87.1896 8.72512C86.9525 8.57759 86.6819 8.50382 86.3779 8.50382C86.1499 8.50382 85.9386 8.54685 85.744 8.63291C85.5525 8.71897 85.3838 8.83883 85.2378 8.99251C85.095 9.14618 84.9825 9.32445 84.9004 9.5273C84.8183 9.72708 84.7773 9.94068 84.7773 10.1681C84.7773 10.4724 84.8457 10.7505 84.9825 11.0026C85.1223 11.2546 85.3108 11.4559 85.5479 11.6065C85.7881 11.7571 86.0602 11.8324 86.3642 11.8324Z" fill="white"/>
</g>
<defs>
<clipPath id="clip0_2218_4114">
<rect width="140" height="32" fill="white"/>
</clipPath>
</defs>
</svg>
