<svg width="80" height="80" viewBox="0 0 80 80" fill="none" xmlns="http://www.w3.org/2000/svg">
<mask id="mask0_1070_304" style="mask-type:alpha" maskUnits="userSpaceOnUse" x="0" y="6" width="80" height="62">
<rect y="6.87646" width="80" height="60.2469" fill="#D9D9D9"/>
</mask>
<g mask="url(#mask0_1070_304)">
<path d="M1.35868 53.4565L8.9936 50.693L0.0079612 60.5007L11.481 57.729L4.88316 63.5927C4.88316 63.5927 16.6027 65.4649 21.2406 58.9133C28.1405 49.1604 20.6868 42.2395 13.8413 42.8384C4.78523 43.6293 1.35191 53.4541 1.35191 53.4541L1.35868 53.4565Z" fill="#FF4B00"/>
<path d="M26.6242 32.3593C26.6242 32.3593 21.8133 38.1764 26.5956 46.7173C31.3779 55.2582 36.8365 56.0526 36.8365 56.0526C36.8365 56.0526 57.7303 43.885 61.4005 41.3119C65.064 38.7363 70.2921 24.6342 70.2921 24.6342C70.2921 24.6342 56.8901 20.3313 52.0121 21.7945C47.134 23.2576 26.6286 32.3684 26.6286 32.3684L26.6242 32.3593Z" fill="#FF4B00"/>
<path d="M36.0652 28.4137L27.9404 25.2123C27.9404 25.2123 22.0295 27.6651 16.5283 30.2717C19.3086 33.2365 23.2767 34.2951 27.2373 32.5886C28.1243 32.2067 36.056 28.418 36.056 28.418L36.0652 28.4137Z" fill="#FF4B00"/>
<path d="M32.7591 67.3868C39.4442 62.5735 44.6348 58.8426 44.6348 58.8426L45.1652 50.741L37.4231 55.5141C37.4231 55.5141 31.63 58.1409 32.7591 67.3868Z" fill="#FF4B00"/>
<path d="M45.552 39.4209C49.3098 40.7601 53.0216 39.9571 53.8426 37.6273C54.6635 35.2974 52.2828 32.3231 48.525 30.9839C44.7673 29.6447 41.0555 30.4478 40.2345 32.7776C39.4135 35.1074 41.7943 38.0817 45.552 39.4209Z" fill="white"/>
<path d="M29.4521 12.255L35.2442 12.2292L39.8646 6.8869L39.4738 14.8215L43.3905 19.4306L37.3139 18.5029L32.9219 22.6483L33.8685 16.616L29.4521 12.255Z" fill="#FF4B00"/>
<path d="M53.2673 53.0507L56.4207 53.0035L58.7578 50.2761L58.9971 53.9361L61.2613 56.3454L58.1079 56.3927L56.0299 58.426L55.5945 55.2859L53.2673 53.0507Z" fill="#FF4B00"/>
<path d="M76.2715 35.5976L76.1017 41.0391L80.2935 44.3559L75.0088 44.6978L71.6519 48.545L71.1455 43.1351L68.0145 40.2097L72.6547 39.7913L76.2715 35.5976Z" fill="#FF4B00"/>
</g>
</svg>
