<svg width="80" height="80" viewBox="0 0 80 80" fill="none" xmlns="http://www.w3.org/2000/svg">
<path d="M46.6632 14.4541C29.9702 9.79213 16.7527 16.695 13.7515 31.5351C10.0195 49.9481 24.9786 61.5052 42.3558 67.0134C42.488 64.6863 42.659 58.23 42.659 58.23C42.659 58.23 59.2742 59.5934 64.3591 49.4075C69.444 39.2137 63.947 19.2807 46.6632 14.462V14.4541ZM45.6213 49.3056C44.6028 49.4858 43.592 49.5955 42.5968 49.6582L42.3714 53.952L36.4001 53.1214L36.6178 49.3605C28.0809 48.0441 21.7287 43.4135 21.7287 43.4135L26.6969 36.9728C26.6969 36.9728 31.2686 40.4125 39.6656 43.4448C48.0627 46.4692 49.7576 36.6046 41.8349 36.5497C33.9121 36.4949 24.2867 40.1148 26.4248 28.3775C27.4355 22.8458 32.7692 21.5216 38.1262 21.6705C38.0951 20.7537 38.1417 16.7185 38.1417 16.7185L43.732 17.4394L43.4365 22.2189C47.2385 22.8693 50.1697 23.8408 50.1697 23.8408L48.8013 29.1375C48.8013 29.1375 40.5053 25.4941 34.9929 26.8496C29.4804 28.2051 33.6011 31.9896 45.046 31.8094C56.4986 31.6291 58.3024 47.0177 45.6291 49.3056H45.6213Z" fill="#FF4B00"/>
</svg>
