<svg width="32" height="33" viewBox="0 0 32 33" fill="none" xmlns="http://www.w3.org/2000/svg">
<path d="M2.66669 29.8332L4.55144 22.9891C3.3862 20.9802 2.77493 18.7052 2.7813 16.3794C2.7813 9.09173 8.74118 3.1665 16.0573 3.1665C19.6103 3.1665 22.9468 4.54166 25.4492 7.03849C27.958 9.53533 29.3397 12.856 29.3333 16.3858C29.3333 23.6735 23.3735 29.5987 16.0509 29.5987H16.0446C13.8224 29.5987 11.6383 29.041 9.69629 27.9891L2.66669 29.8332ZM10.0338 25.6L10.4349 25.8408C12.1286 26.842 14.0707 27.368 16.0509 27.3744H16.0573C22.1382 27.3744 27.092 22.4504 27.092 16.3921C27.092 13.458 25.9459 10.7014 23.8637 8.62278C21.7816 6.5442 19.0054 5.40351 16.0573 5.40351C9.97646 5.39718 5.02262 10.3211 5.02262 16.3794C5.02262 18.4517 5.60206 20.4732 6.70998 22.2223L6.97105 22.6405L5.85675 26.69L10.0338 25.6Z" fill="#00F613"/>
<path d="M3.13068 29.3708L4.95175 22.7612C3.82472 20.8284 3.23255 18.6294 3.23255 16.3861C3.23892 9.35183 8.98868 3.62939 16.0565 3.62939C19.4885 3.62939 22.704 4.96019 25.1237 7.36831C27.5433 9.77642 28.874 12.983 28.874 16.3924C28.874 23.4266 23.1179 29.149 16.0565 29.149H16.0501C13.9043 29.149 11.7967 28.6104 9.92469 27.5964L3.13068 29.3708Z" fill="#00F613"/>
<path fill-rule="evenodd" clip-rule="evenodd" d="M12.74 10.8535C12.4917 10.3022 12.2307 10.2895 11.9951 10.2832C11.804 10.2769 11.5812 10.2769 11.3583 10.2769C11.1355 10.2769 10.7789 10.3592 10.4733 10.6888C10.1676 11.0183 9.31439 11.8168 9.31439 13.4454C9.31439 15.0677 10.5051 16.6393 10.6706 16.8611C10.8362 17.0829 12.9693 20.524 16.3376 21.8485C19.1393 22.9511 19.7123 22.7293 20.3172 22.6723C20.9222 22.6153 22.2784 21.8738 22.5586 21.1007C22.8324 20.3276 22.8324 19.6685 22.7496 19.5291C22.6668 19.3897 22.444 19.3073 22.1129 19.1425C21.7817 18.9777 20.1517 18.1793 19.8461 18.0652C19.5404 17.9575 19.3176 17.9004 19.1011 18.23C18.8782 18.5595 18.2415 19.3009 18.0505 19.5227C17.8594 19.7445 17.662 19.7699 17.3309 19.6051C16.9998 19.4404 15.9301 19.0918 14.663 17.9638C13.6761 17.0893 13.0075 16.0056 12.8165 15.6761C12.6254 15.3466 12.7974 15.1691 12.9629 15.0044C13.1094 14.8586 13.294 14.6178 13.4596 14.4277C13.6251 14.2376 13.6824 14.0981 13.7907 13.8763C13.8989 13.6545 13.848 13.4644 13.7652 13.2997C13.6824 13.1412 13.0329 11.5063 12.74 10.8535Z" fill="white"/>
</svg>
