<svg width="32" height="33" viewBox="0 0 32 33" fill="none" xmlns="http://www.w3.org/2000/svg">
<path fill-rule="evenodd" clip-rule="evenodd" d="M2.66669 16.1001C2.66669 8.66993 8.49012 3.1665 16.0003 3.1665C23.5104 3.1665 29.3338 8.67327 29.3338 16.1034C29.3338 23.5335 23.5104 29.037 16.0003 29.037C14.6502 29.037 13.3569 28.857 12.1402 28.5236C11.9035 28.4603 11.6502 28.477 11.4268 28.577L8.78013 29.7436C8.08678 30.0503 7.30677 29.557 7.28344 28.8003L7.2101 26.4269C7.20343 26.1336 7.0701 25.8602 6.85343 25.6669C4.26005 23.3469 2.66669 19.9868 2.66669 16.1001ZM11.9104 13.6699L7.99363 19.8833C7.61696 20.48 8.35031 21.15 8.91031 20.7233L13.117 17.5299C13.4004 17.3133 13.7937 17.3133 14.0804 17.5266L17.1971 19.8633C18.1338 20.5633 19.4671 20.32 20.0905 19.33L24.0105 13.1198C24.3839 12.5232 23.6505 11.8498 23.0905 12.2765L18.8838 15.4699C18.6005 15.6866 18.2071 15.6866 17.9205 15.4732L14.8037 13.1365C13.8671 12.4365 12.5337 12.6798 11.9104 13.6699Z" fill="#3B42C4"/>
<path fill-rule="evenodd" clip-rule="evenodd" d="M7.99361 19.8833L11.9103 13.6699C12.5337 12.6798 13.867 12.4365 14.8037 13.1365L17.9204 15.4732C18.2071 15.6866 18.6004 15.6866 18.8838 15.4699L23.0905 12.2765C23.6505 11.8498 24.3839 12.5232 24.0105 13.1199L20.0905 19.33C19.4671 20.32 18.1338 20.5633 17.1971 19.8633L14.0804 17.5266C13.7937 17.3133 13.4004 17.3133 13.117 17.5299L8.91029 20.7233C8.35028 21.15 7.61694 20.48 7.99361 19.8833Z" fill="white"/>
</svg>
