<svg width="32" height="33" viewBox="0 0 32 33" fill="none" xmlns="http://www.w3.org/2000/svg">
<rect x="2.66666" y="3.1665" width="26.6667" height="26.6667" rx="5" fill="black"/>
<path d="M19.9793 13.9428C21.1621 14.7913 22.6111 15.2906 24.176 15.2906V12.2684C23.8799 12.2685 23.5845 12.2375 23.2947 12.1759V14.5548C21.7299 14.5548 20.2811 14.0555 19.098 13.2071V19.3745C19.098 22.4597 16.6058 24.9606 13.5317 24.9606C12.3847 24.9606 11.3186 24.6126 10.433 24.0158C11.4438 25.0529 12.8534 25.6964 14.4129 25.6964C17.4871 25.6964 19.9795 23.1955 19.9795 20.1101V13.9428H19.9793V13.9428ZM21.0666 10.8938C20.4621 10.2311 20.0652 9.37464 19.9793 8.42778V8.03906H19.1441C19.3544 9.24252 20.0714 10.2707 21.0666 10.8938ZM12.3773 21.6482C12.0396 21.2038 11.8571 20.6602 11.8579 20.1013C11.8579 18.6902 12.9978 17.5461 14.4042 17.5461C14.6663 17.546 14.9268 17.5863 15.1766 17.6658V14.5761C14.8847 14.536 14.5901 14.5189 14.2956 14.5252V16.93C14.0457 16.8505 13.785 16.8101 13.5229 16.8104C12.1165 16.8104 10.9767 17.9544 10.9767 19.3656C10.9767 20.3635 11.5464 21.2274 12.3773 21.6482Z" fill="#FF004F"/>
<path d="M19.0971 13.207C20.2802 14.0555 21.729 14.5547 23.2938 14.5547V12.1758C22.4203 11.9891 21.6471 11.531 21.0657 10.8938C20.0705 10.2706 19.3535 9.24245 19.1433 8.03906H16.9494V20.11C16.9445 21.5172 15.8065 22.6566 14.4032 22.6566C13.5762 22.6566 12.8416 22.261 12.3763 21.6482C11.5454 21.2274 10.9757 20.3634 10.9757 19.3657C10.9757 17.9545 12.1155 16.8104 13.5218 16.8104C13.7913 16.8104 14.051 16.8525 14.2946 16.9301V14.5252C11.2745 14.5878 8.84564 17.0643 8.84564 20.11C8.84564 21.6304 9.45049 23.0087 10.4322 24.0158C11.3178 24.6126 12.3839 24.9607 13.5309 24.9607C16.605 24.9607 19.0972 22.4596 19.0972 19.3745V13.207H19.0971Z" fill="white"/>
<path d="M23.2932 12.1762V11.5329C22.5056 11.5341 21.7334 11.3128 21.0651 10.8941C21.6567 11.5441 22.4357 11.9923 23.2932 12.1762ZM19.1427 8.03942C19.1226 7.92441 19.1072 7.80864 19.0965 7.69243V7.30371H16.0674V19.3747C16.0626 20.7818 14.9247 21.9212 13.5213 21.9212C13.1092 21.9212 12.7202 21.8231 12.3757 21.6487C12.841 22.2614 13.5756 22.6569 14.4026 22.6569C15.8058 22.6569 16.9439 21.5176 16.9488 20.1104V8.03942H19.1427ZM14.2941 14.5256V13.8408C14.041 13.8061 13.7859 13.7887 13.5304 13.7888C10.456 13.7887 7.96378 16.2898 7.96378 19.3747C7.96378 21.3089 8.94325 23.0134 10.4316 24.016C9.44996 23.009 8.84511 21.6307 8.84511 20.1103C8.84511 17.0647 11.2739 14.5882 14.2941 14.5256Z" fill="#00F2EA"/>
</svg>
