<svg fill="none" height="32" viewBox="0 0 148 32" width="148" xmlns="http://www.w3.org/2000/svg"><g fill="#fff"><path d="m27.878 1.55486 4.3558 7.90362 4.3559-7.90362h2.5054v12.98794h-2.0909v-9.95179l-3.8211 6.89159h-1.9586l-3.8212-6.89159v9.95179h-2.0908v-12.98794z"/><path d="m45.8406 14.7723c-.9673 0-1.8204-.2168-2.5534-.6445-.727-.4217-1.3218-1.0422-1.7183-1.7832-.4086-.759-.6128-1.6325-.6128-2.61443 0-.99397.1982-1.87951.6008-2.64457.4025-.76506.9553-1.36747 1.6702-1.80121.715-.43373 1.5321-.6506 2.4573-.6506.9193 0 1.7123.21687 2.3732.65663.6609.43373 1.1716 1.04819 1.5321 1.83132.3545.78313.5347 1.70482.5347 2.76506v.5723h-7.0956c.1322.7891.4507 1.4157.9553 1.8675.5107.4518 1.1536.6807 1.9286.6807.6249 0 1.1596-.0904 1.6102-.2771.4506-.1868.8712-.4699 1.2677-.8434l1.1115 1.3614c-1.1055 1.0121-2.4573 1.5181-4.0615 1.5181zm1.5261-7.70478c-.4386-.44578-1.0094-.6747-1.7183-.6747-.691 0-1.2677.22892-1.7364.68675-.4626.45783-.763 1.07229-.8832 1.84338h5.0889c-.0601-.78916-.3124-1.40964-.751-1.86145z"/><path d="m52.657 6.58327h-1.9226v-1.71687h1.9226v-2.83735h2.0187v2.83735h2.9199v1.71687h-2.9199v4.34943c0 .7229.1262 1.2409.3725 1.5482.2463.3072.6669.4638 1.2677.4638.2283 0 .4506-.006.6729-.0301.1862-.0241.3905-.0482.6128-.0904v1.6988c-.2523.0723-.5107.1265-.775.1687-.3004.0422-.6008.0663-.9012.0663-2.175 0-3.2624-1.1928-3.2624-3.5783v-4.59041z"/><path d="m68.1013 14.5423h-1.9766v-1.3555c-.3425.5-.8051.9036-1.3398 1.1747-.5408.2771-1.1596.4097-1.8505.4097-.8532 0-1.6042-.2169-2.2591-.6567-.6549-.4337-1.1716-1.0361-1.5501-1.8012-.3785-.765-.5647-1.6385-.5647-2.62044 0-.98795.1922-1.86145.5707-2.62651.3846-.75903.9133-1.35542 1.5862-1.78915.6729-.43374 1.4479-.65061 2.3251-.65061.6609 0 1.2497.12651 1.7784.38555.5167.25301.9673.6265 1.3038 1.09036v-1.24097h1.9766zm-2.0187-6.2892c-.2163-.54819-.5587-.98193-1.0214-1.3012-.4626-.31928-1.0033-.47591-1.6162-.47591-.8651 0-1.55.28916-2.0607.8735-.5107.57831-.7691 1.36747-.7691 2.35542 0 .99399.2464 1.78309.739 2.36749.4927.5843 1.1596.8735 2.0067.8735.6249 0 1.1776-.1627 1.6643-.482.4806-.3132.8471-.765 1.0514-1.3012v-2.90358z"/><path d="m73.0205 1.55486h5.2991c1.472 0 2.5895.30121 3.3465.89759.7571.59639 1.1356 1.41566 1.1356 2.46386 0 1.43373-.6909 2.39759-2.0728 2.89156 1.8024.45783 2.7036 1.51205 2.7036 3.16863 0 1.1205-.4025 1.994-1.2076 2.6205s-1.9586.9398-3.4667.9398h-5.7317v-12.98194zm5.0528 5.55422c1.7183 0 2.5835-.62651 2.5835-1.87952 0-.62651-.2043-1.08434-.6068-1.37349-.4026-.28916-1.0274-.43374-1.8746-.43374h-3.0641v3.69277h2.962zm.6188 5.56622c1.7244 0 2.5895-.6506 2.5895-1.9457 0-.6025-.2042-1.05426-.6128-1.35546-.4085-.30723-1.1115-.45783-2.1088-.45783h-3.4487v3.76509h3.5808z"/><path d="m93.4165 14.5419h-1.9886v-1.3916c-.739 1.0844-1.7664 1.6205-3.0702 1.6205-1.1355 0-2.0067-.3614-2.6135-1.0783s-.9132-1.741-.9132-3.0783v-5.74702h2.0187v5.50602c0 .8976.1562 1.5602.4746 1.988.3125.4277.8051.6445 1.478.6445.5768 0 1.0935-.1506 1.5441-.4578s.7991-.7349 1.0514-1.2831v-6.39762h2.0187z"/><path d="m102.236 13.9522c-.715.5482-1.677.8192-2.8783.8192-1.0154 0-1.9046-.1807-2.6616-.5361-.757-.3614-1.3158-.8434-1.6883-1.4458l1.3578-1.1867c.2824.4337.673.7771 1.1776 1.0301.4987.253 1.0935.3795 1.7844.3795 1.2854 0 1.9344-.3795 1.9344-1.1325 0-.3193-.108-.5783-.318-.7771-.21-.1928-.565-.3314-1.0516-.4097l-1.8565-.3253c-.8772-.1566-1.5441-.46382-2.0067-.9337s-.6909-1.07832-.6909-1.81928c0-.89759.3544-1.61446 1.0694-2.16265.715-.54217 1.6763-.81325 2.8899-.81325.8834 0 1.6704.18072 2.3734.54217.697.36144 1.219.83132 1.556 1.40361l-1.394 1.05422c-.234-.38555-.583-.68675-1.045-.90964-.463-.22289-.9977-.33133-1.6106-.33133-.5707 0-1.0153.09639-1.3278.29518-.3124.1988-.4686.47591-.4686.8253 0 .30121.0961.53615.2884.70482.1923.16868.5107.28916.9613.3735l2.0913.37349c.841.1506 1.478.46386 1.922.95181.445.48795.667 1.09635.667 1.83135 0 .9217-.36 1.6566-1.075 2.2048z"/><path d="m105.136 3.22892c-.246-.24699-.372-.55422-.372-.93374 0-.38554.126-.69277.372-.93373.247-.24097.565-.36145.956-.36145.384 0 .703.12048.949.36145.246.24096.372.55421.372.93373s-.126.68675-.372.93374c-.246.24698-.565.36747-.955.36747-.391 0-.709-.12049-.956-.36747zm-.054 1.63855h2.019v9.67473h-2.019z"/><path d="m111.302 4.86783v1.40964c.745-1.09638 1.785-1.63855 3.119-1.63855 1.147 0 2.03.36144 2.643 1.07831.619.71687.925 1.74096.925 3.07831v5.74696h-2.018v-5.51202c0-.90361-.163-1.56626-.481-1.99397s-.823-.63856-1.508-.63856c-.601 0-1.124.15663-1.58.46386-.457.30723-.811.74096-1.076 1.3012v6.37949h-2.018v-9.67467z"/><path d="m124.43 14.7723c-.968 0-1.821-.2168-2.554-.6445-.727-.4217-1.322-1.0422-1.718-1.7832-.409-.759-.613-1.6325-.613-2.61443 0-.99397.198-1.87951.601-2.64457.402-.76506.955-1.36747 1.67-1.80121.715-.43373 1.532-.6506 2.457-.6506.92 0 1.713.21687 2.373.65663.661.43373 1.172 1.04819 1.533 1.83132.354.78313.534 1.70482.534 2.76506v.5723h-7.095c.132.7891.45 1.4157.955 1.8675.511.4518 1.154.6807 1.929.6807.624 0 1.159-.0904 1.61-.2771.45-.1868.871-.4699 1.267-.8434l1.112 1.3614c-1.106 1.0121-2.457 1.5181-4.061 1.5181zm1.526-7.70478c-.439-.44578-1.01-.6747-1.719-.6747-.691 0-1.267.22892-1.736.68675-.463.45783-.763 1.07229-.883 1.84338h5.089c-.061-.78916-.313-1.40964-.751-1.86145z"/><path d="m136.985 13.9522c-.715.5482-1.677.8192-2.878.8192-1.016 0-1.905-.1807-2.662-.5361-.757-.3614-1.316-.8434-1.688-1.4458l1.358-1.1867c.282.4337.673.7771 1.177 1.0301.499.253 1.094.3795 1.785.3795 1.285 0 1.934-.3795 1.934-1.1325 0-.3193-.108-.5783-.318-.7771-.21-.1928-.565-.3314-1.052-.4097l-1.856-.3253c-.877-.1566-1.544-.46382-2.007-.9337-.462-.46988-.691-1.07832-.691-1.81928 0-.89759.355-1.61446 1.07-2.16265.715-.54217 1.676-.81325 2.89-.81325.883 0 1.67.18072 2.373.54217.697.36144 1.219.83132 1.556 1.40361l-1.394 1.05422c-.234-.38555-.583-.68675-1.045-.90964-.463-.22289-.998-.33133-1.611-.33133-.57 0-1.015.09639-1.327.29518-.313.1988-.469.47591-.469.8253 0 .30121.096.53615.288.70482.193.16868.511.28916.962.3735l2.091.37349c.841.1506 1.478.46386 1.922.95181.445.48795.667 1.09635.667 1.83135 0 .9217-.36 1.6566-1.075 2.2048z"/><path d="m146.423 13.9522c-.715.5482-1.676.8192-2.878.8192-1.015 0-1.904-.1807-2.661-.5361-.757-.3614-1.316-.8434-1.689-1.4458l1.358-1.1867c.283.4337.673.7771 1.178 1.0301.498.253 1.093.3795 1.784.3795 1.286 0 1.935-.3795 1.935-1.1325 0-.3193-.108-.5783-.319-.7771-.21-.1928-.564-.3314-1.051-.4097l-1.857-.3253c-.877-.1566-1.544-.46382-2.006-.9337-.463-.46988-.691-1.07832-.691-1.81928 0-.89759.354-1.61446 1.069-2.16265.715-.54217 1.676-.81325 2.89-.81325.883 0 1.67.18072 2.373.54217.697.36144 1.22.83132 1.556 1.40361l-1.393 1.05422c-.235-.38555-.583-.68675-1.046-.90964s-.997-.33133-1.61-.33133c-.571 0-1.015.09639-1.328.29518-.312.1988-.468.47591-.468.8253 0 .30121.096.53615.288.70482.192.16868.511.28916.961.3735l2.091.37349c.841.1506 1.478.46386 1.923.95181.444.48795.666 1.09635.666 1.83135 0 .9217-.36 1.6566-1.075 2.2048z"/><path d="m25.3164 17.7888h4.9086c1.6522 0 2.926.3735 3.8272 1.1265.8952.753 1.3458 1.8313 1.3458 3.2289s-.4446 2.4759-1.3398 3.229c-.8952.753-2.1689 1.1325-3.8272 1.1325h-2.7937v4.265h-2.1209zm4.7344 6.8072c1.0874 0 1.8865-.1988 2.4032-.6024s.7751-1.012.7751-1.8373c0-.8494-.2584-1.4699-.7811-1.8615-.5227-.3975-1.3218-.5963-2.3972-.5963h-2.6195v4.8975z"/><path d="m45.6767 30.771h-1.9767v-1.3555c-.3425.5-.8051.9036-1.3398 1.1747-.5407.2771-1.1596.4097-1.8505.4097-.8531 0-1.6042-.2169-2.259-.6567-.6549-.4337-1.1716-1.0361-1.5501-1.8012-.3785-.765-.5648-1.6385-.5648-2.6204 0-.988.1923-1.8615.5708-2.6266.3845-.759.9132-1.3554 1.5861-1.7891s1.448-.6506 2.3251-.6506c.6609 0 1.2497.1265 1.7784.3855.5167.253.9674.6265 1.3038 1.0904v-1.241h1.9767zm-2.0188-6.2892c-.2162-.5482-.5587-.9819-1.0213-1.3012-.4627-.3193-1.0034-.4759-1.6162-.4759-.8652 0-1.5501.2891-2.0608.8735-.5107.5783-.769 1.3675-.769 2.3554 0 .994.2463 1.7831.739 2.3675.4926.5843 1.1595.8735 2.0067.8735.6248 0 1.1776-.1627 1.6642-.482.4807-.3132.8472-.765 1.0514-1.3012v-2.9036z"/><path d="m47.7119 21.0968h1.9887v1.4458c.5708-1.0542 1.3758-1.5843 2.4032-1.5843.1983 0 .3966.018.5948.0481v1.8735c-.2042-.018-.4085-.0301-.6188-.0301-1.1716 0-1.9526.5663-2.3492 1.7048v6.2109h-2.0187v-9.6747z"/><path d="m55.201 22.8145h-1.3758v-1.7169h1.3758v-2.8373h2.0188v2.8373h2.9199v1.7169h-2.9199v4.3494c0 .7229.1261 1.2409.3725 1.5482.2463.3072.6669.4638 1.2677.4638.2283 0 .4506-.006.6729-.0301.1862-.0241.3905-.0482.6128-.0904v1.6988c-.2523.0723-.5107.1265-.775.1687-.3004.0422-.6008.0663-.9013.0663-2.1749 0-3.2623-1.1928-3.2623-3.5783v-4.5904z"/><path d="m61.7725 21.0966h1.9887v1.4097c.745-1.0964 1.7844-1.6386 3.1182-1.6386 1.1476 0 2.0308.3615 2.6436 1.0783.6188.7169.9252 1.741.9252 3.0783v5.747h-2.0187v-5.506c0-.9036-.1622-1.5663-.4806-1.994-.3185-.4277-.8232-.6385-1.5081-.6385-.6008 0-1.1235.1566-1.5801.4638-.4566.3073-.8111.741-1.0754 1.3012v6.3796h-2.0188v-9.6747z"/><path d="m76.8807 30.9992c-.9673 0-1.8204-.2169-2.5534-.6446-.727-.4217-1.3218-1.0422-1.7183-1.7831-.4086-.7591-.6129-1.6326-.6129-2.6145 0-.994.1983-1.8795.6008-2.6446.4026-.765.9553-1.3674 1.6703-1.8012.7149-.4337 1.5321-.6506 2.4573-.6506.9192 0 1.7123.2169 2.3732.6566.6609.4338 1.1716 1.0482 1.5321 1.8314.3544.7831.5347 1.7048.5347 2.765v.5723h-7.0956c.1322.7892.4506 1.4157.9553 1.8675.5107.4518 1.1536.6807 1.9286.6807.6248 0 1.1596-.0904 1.6102-.2771s.8711-.4699 1.2677-.8434l1.1115 1.3615c-1.1055 1.012-2.4573 1.518-4.0615 1.518zm1.5261-7.7049c-.4386-.4457-1.0094-.6747-1.7184-.6747-.6909 0-1.2677.229-1.7363.6868-.4626.4578-.763 1.0723-.8832 1.8434h5.0889c-.0601-.7892-.3124-1.4097-.751-1.8615z"/><path d="m82.8623 21.0968h1.9887v1.4819c.6248-1.0843 1.472-1.6204 2.5534-1.6204.3545 0 .6369.0301.8592.0903v1.8615c-.3004-.0422-.6068-.0663-.9133-.0663-1.2076 0-2.0307.5422-2.4693 1.6325v6.2892h-2.0187v-9.6747z"/><path d="m96.052 30.1809c-.715.5482-1.6763.8193-2.8779.8193-1.0154 0-1.9046-.1807-2.6616-.5361-.757-.3615-1.3158-.8434-1.6883-1.4458l1.3579-1.1868c.2823.4338.6729.7771 1.1715 1.0302.4987.253 1.0935.3795 1.7844.3795 1.2858 0 1.9346-.3795 1.9346-1.1326 0-.3192-.1081-.5783-.3184-.7771-.2103-.1927-.5647-.3313-1.0514-.4096l-1.8565-.3253c-.8772-.1566-1.5441-.4639-2.0067-.9337-.4626-.4699-.6909-1.0784-.6909-1.8193 0-.8976.3544-1.6145 1.0694-2.1627.715-.5421 1.6763-.8132 2.8899-.8132.8832 0 1.6702.1807 2.3732.5421.6969.3615 1.2196.8314 1.5561 1.4037l-1.3939 1.0542c-.2343-.3856-.5828-.6868-1.0454-.9097s-.9973-.3313-1.6102-.3313c-.5707 0-1.0153.0964-1.3278.2952-.3124.1988-.4686.4759-.4686.8253 0 .3012.0961.5361.2884.7048s.5107.2892.9613.3735l2.0908.3735c.8411.1506 1.478.4639 1.9226.9518.4446.488.6669 1.0964.6669 1.8313 0 .9217-.3605 1.6567-1.0754 2.2049z"/><path d="m6.3946 1.11523h-.01803l-.02403 2.23494h.01802c1.46598 0 2.60151 1.15663 5.07084 5.33133l.1502.25301.012.01807 1.3819-2.07831-.012-.01807c-.3245-.53012-.6369-1.01807-.9373-1.46386-.3485-.51807-.6789-.9759-1.0034-1.39156-1.64017-2.09037-3.004-2.88555-4.6382-2.88555z"/><path d="m6.36756 1.11523c-1.64622.00603-3.10017 1.07229-4.14558 2.70482l-.01202.01205 1.9286 1.05422.01201-.01205c.61283-.92771 1.37586-1.51807 2.19296-1.5241h.01802l.03004-2.23494s-.01201 0-.01802 0z"/><path d="m2.22438 3.82031-.01201.01205c-.68493 1.07831-1.20162 2.39759-1.477995 3.8253v.01807l2.162915.51205v-.01807c.23431-1.25301.6729-2.41566 1.24968-3.28313l.01202-.01205-1.9286-1.05422z"/><path d="m2.89729 8.16971-2.162915-.51205v.01807c-.15621.78314-.234375 1.57806-.234375 2.37927v.0181l2.21699.1988v-.0181c0-.0482 0-.0904 0-.1386 0-.64455.06008-1.28913.17423-1.92166v-.01807z"/><path d="m2.78908 10.9641c-.04205-.229-.06008-.4639-.06609-.6928v-.0181l-2.22299-.1982v.0181c0 .4698.036049.9331.120162 1.391v.018l2.168918-.5z"/><path d="m3.2947 12.123c-.24033-.265-.41456-.6446-.50468-1.1325v-.0181l-2.168926.5v.0181c.168226.8614.486656 1.5783.949276 2.1205l.01202.012 1.72432-1.4879z"/><path d="m9.7121 5.94035c-1.30375 2.00602-2.09682 3.26506-2.09682 3.26506-1.73634 2.73499-2.33715 3.34339-3.30445 3.34339-.40254 0-.73899-.1446-.99734-.4217l-.01202-.0121-1.72432 1.488.01201.012c.63686.741 1.53207 1.1507 2.63756 1.1507 1.67625 0 2.88388-.7952 5.02877-4.5482 0 0 .89521-1.58438 1.50801-2.67474-.3785-.61446-.727-1.1506-1.04539-1.60843z"/><path d="m12.0346 2.77368-.012.01205c-.3545.38554-.6849.78916-.9914 1.21084.3245.40964.6549.8735 1.0034 1.39157.4086-.63253.7931-1.1506 1.1656-1.54217l.012-.01205z"/><path d="m18.3641 2.57909c-.9072-.92169-1.9947-1.46386-3.1543-1.46386-1.2256 0-2.253.6747-3.1783 1.65663l-.012.01205 1.1776 1.06024.012-.01205c.6129-.63855 1.2017-.95783 1.8565-.95783.703 0 1.3639.33133 1.9406.91566l.0121.01205 1.3578-1.21687-.012-.01204z"/><path d="m21.0021 9.7608c-.0481-2.95783-1.0815-5.60843-2.6196-7.16867l-.012-.01205-1.3578 1.21687.012.01204c1.1536 1.18675 1.9466 3.39759 2.0187 5.95181v.01807h1.9587z"/><path d="m20.9989 9.77857v-.01807h-1.9586v.01807.36143c0 .6988-.1022 1.2591-.3125 1.6627l-.012.018 1.46 1.5241.012-.018c.5287-.8193.8051-1.9579.8051-3.33739 0-.07229 0-.13855 0-.21084z"/><path d="m18.7323 11.8094-.012.018c-.1803.3434-.4446.5723-.7811.6687l.6669 2.1024c.0902-.0301.1743-.0662.2584-.1024.024-.012.048-.0241.0721-.0361l.042-.0181c.4446-.2229.8231-.5542 1.1115-.9638.0181-.0241.0361-.0543.0541-.0784.012-.018.024-.0361.0361-.0542l.012-.0181-1.46-1.524z"/><path d="m17.5172 12.5542c-.2103 0-.4206-.0362-.6128-.1205l-.679 2.1506c.3846.1325.7931.1928 1.2497.1928.3906 0 .7811-.0603 1.1536-.1868l-.6669-2.1024c-.1442.0422-.2944.0663-.4446.0602z"/><path d="m16.1524 11.8155-.012-.012-1.5681 1.6325.012.012c.5467.5844 1.0634.9458 1.6522 1.1386l.6789-2.1506c-.2463-.1084-.4866-.3012-.769-.6265z"/><path d="m16.1404 11.8035c-.4687-.5482-1.051-1.4643-1.9642-2.94016l-1.1896-1.99398-.012-.01807-1.3819 2.07831.012.01808.8472 1.42772c.8171 1.3735 1.484 2.3675 2.1328 3.0602l.012.0121 1.5682-1.6326-.0121-.012z"/></g></svg>