<svg width="100" height="32" viewBox="0 0 100 32" fill="none" xmlns="http://www.w3.org/2000/svg">
<path d="M23.6589 6.37342C22.595 5.68203 21.7208 4.73714 21.1154 3.62432C20.5101 2.5115 20.1927 1.26585 20.1921 0H14.6997V21.9043C14.665 22.8037 14.3658 23.6732 13.8392 24.4045C13.3126 25.1359 12.5819 25.6969 11.738 26.0177C10.8941 26.3386 9.97417 26.4051 9.09256 26.2092C8.21102 26.0132 7.40665 25.5633 6.77959 24.9154C6.15253 24.2675 5.73044 23.4502 5.56569 22.5652C5.40093 21.6802 5.50093 20.7664 5.85312 19.9375C6.20538 19.1086 6.79428 18.4012 7.54673 17.9032C8.29911 17.4052 9.18186 17.1386 10.0851 17.1365C10.5465 17.1379 11.0048 17.2097 11.4445 17.3493V11.7686C9.40888 11.4943 7.33776 11.8456 5.50785 12.7755C3.67787 13.7054 2.17625 15.1696 1.20349 16.9725C0.23073 18.7754 -0.166891 20.8312 0.0639073 22.8653C0.294634 24.8994 1.14272 26.8148 2.49485 28.3558C3.84697 29.8968 5.63879 30.9899 7.63082 31.4892C9.62291 31.9885 11.7204 31.8701 13.6432 31.1499C15.566 30.4296 17.2225 29.1419 18.3914 27.4586C19.5602 25.7754 20.1859 23.7767 20.1847 21.7297V10.6248C22.408 12.2173 25.0776 13.0723 27.8156 13.0687V7.60451C26.3394 7.60536 24.895 7.17757 23.6589 6.37342Z" fill="white"/>
<path d="M35.9406 9.18479V2.88838H33.9208V1.21536H40.0716V2.88838H38.0517V9.18479H35.9406ZM40.7953 9.18479V1.21536H42.9065V9.18479H40.7953ZM44.1586 9.18479V1.21536H46.2698V4.32401H46.3382L49.0313 1.21536H51.4962L48.495 4.60661L51.4506 9.18479H49.0428L47.0001 5.81615L46.2698 6.66396V9.18479H44.1586ZM53.575 9.18479V2.88838H51.5551V1.21536H57.706V2.88838H55.6861V9.18479H53.575ZM61.782 9.37696C59.3172 9.37696 57.6739 7.71525 57.6739 5.20573C57.6739 2.69621 59.3172 1.02319 61.782 1.02319C64.2583 1.02319 65.8902 2.69621 65.8902 5.20573C65.8902 7.71525 64.2583 9.37696 61.782 9.37696ZM59.9448 5.20573C59.9448 6.69788 60.6637 7.65873 61.782 7.65873C62.9003 7.65873 63.6193 6.69788 63.6193 5.20573C63.6193 3.71358 62.9003 2.74142 61.782 2.74142C60.6637 2.74142 59.9448 3.71358 59.9448 5.20573ZM66.7296 9.18479V1.21536H68.8408V4.32401H68.9092L71.6023 1.21536H74.0672L71.066 4.60661L74.0216 9.18479H71.6138L69.5711 5.81615L68.8408 6.66396V9.18479H66.7296ZM34.4343 19.7824V11.813H37.6409L38.8962 17.0694H38.9875L40.2428 11.813H43.4608V19.7824H41.5551V13.1808H41.4752L39.8434 19.2511H38.0517L36.4085 13.1808H36.34V19.7824H34.4343ZM43.9887 19.7824L46.4309 11.813H49.3522L51.7943 19.7824H49.6375L49.2153 18.1094H46.5677L46.1455 19.7824H43.9887ZM46.9786 16.5268H48.8159L47.9372 13.0565H47.8573L46.9786 16.5268ZM52.3161 19.7824V11.813H55.7281C57.6909 11.813 58.8549 12.7173 58.8549 14.2773C58.8549 15.3625 58.2272 16.1764 57.1317 16.4816L59.1858 19.7824H56.8465L55.1233 16.7529H54.4272V19.7824H52.3161ZM54.4272 15.3964H55.4657C56.3329 15.3964 56.7438 15.0347 56.7438 14.379C56.7438 13.7347 56.3329 13.373 55.4657 13.373H54.4272V15.3964ZM59.8472 19.7824V11.813H61.9582V14.9216H62.0266L64.7198 11.813H67.1847L64.1834 15.2042L67.139 19.7824H64.7312L62.6885 16.4138L61.9582 17.2616V19.7824H59.8472ZM67.7353 19.7824V11.813H73.0873V13.4747H69.8464V14.9103H72.4368V16.5268H69.8464V18.1207H73.1329V19.7824H67.7353ZM75.6135 19.7824V13.486H73.5937V11.813H79.7445V13.486H77.7246V19.7824H75.6135ZM80.4684 19.7824V11.813H82.5795V19.7824H80.4684ZM83.8312 19.7824V11.813H86.9922L89.0121 18.2564H89.0919V11.813H91.0205V19.7824H87.8709L85.8511 13.3391H85.7598V19.7824H83.8312ZM95.9175 19.9746C93.4982 19.9746 91.8664 18.2903 91.8664 15.8034C91.8664 13.3052 93.464 11.6208 95.849 11.6208C97.5265 11.6208 98.7361 12.2539 99.3295 13.4182L97.3895 14.2999C97.0928 13.6782 96.6136 13.3391 95.9517 13.3391C94.8219 13.3391 94.1373 14.1756 94.1373 15.8034C94.1373 17.4651 94.8334 18.3016 95.9517 18.3016C96.9559 18.3016 97.5151 17.8268 97.6064 16.9225H95.6436V15.3512H99.6148V16.3686C99.6148 18.7537 98.1085 19.9746 95.9175 19.9746ZM34.4343 30.3801V22.4106H37.8463C39.7977 22.4106 40.9731 23.428 40.9731 25.0558C40.9731 26.6836 39.7977 27.701 37.8463 27.701H36.5454V30.3801H34.4343ZM36.5454 26.1297H37.5382C38.4283 26.1297 38.862 25.7906 38.862 25.0558C38.862 24.321 38.4283 23.9706 37.5382 23.9706H36.5454V26.1297ZM40.4895 30.3801L42.9316 22.4106H45.853L48.295 30.3801H46.1382L45.716 28.7071H43.0685L42.6463 30.3801H40.4895ZM43.4794 27.1245H45.3166L44.4379 23.6541H44.358L43.4794 27.1245ZM48.8168 30.3801V22.4106H52.2289C54.1916 22.4106 55.3556 23.315 55.3556 24.8749C55.3556 25.9601 54.728 26.774 53.6325 27.0793L55.6865 30.3801H53.3472L51.624 27.3506H50.9279V30.3801H48.8168ZM50.9279 25.9941H51.9664C52.8337 25.9941 53.2445 25.6323 53.2445 24.9767C53.2445 24.3323 52.8337 23.9706 51.9664 23.9706H50.9279V25.9941ZM57.5868 30.3801V24.0837H55.567V22.4106H61.7178V24.0837H59.698V30.3801H57.5868ZM62.4417 30.3801V22.4106H65.6027L67.6226 28.854H67.7025V22.4106H69.631V30.3801H66.4814L64.4616 23.9367H64.3703V30.3801H62.4417ZM70.8863 30.3801V22.4106H76.2383V24.0724H72.9974V25.508H75.5878V27.1245H72.9974V28.7184H76.2839V30.3801H70.8863ZM77.2589 30.3801V22.4106H80.6709C82.6337 22.4106 83.7977 23.315 83.7977 24.8749C83.7977 25.9601 83.1701 26.774 82.0746 27.0793L84.1286 30.3801H81.7893L80.0661 27.3506H79.37V30.3801H77.2589ZM79.37 25.9941H80.4085C81.2758 25.9941 81.6866 25.6323 81.6866 24.9767C81.6866 24.3323 81.2758 23.9706 80.4085 23.9706H79.37V25.9941Z" fill="white"/>
</svg>
